<svg id="Layer_1" data-name="Layer 1" xmlns="http://www.w3.org/2000/svg" xmlns:xlink="http://www.w3.org/1999/xlink" viewBox="0 0 360.81 22.67"><defs><style>.cls-1,.cls-3{fill:none;}.cls-2{clip-path:url(#clip-path);}.cls-3{stroke:#ed2124;stroke-width:0.28px;}</style><clipPath id="clip-path" transform="translate(-144 -259.6)"><rect class="cls-1" x="144" y="259.6" width="360.81" height="22.67"/></clipPath></defs><title>Line-Bio</title><g class="cls-2"><path class="cls-3" d="M144,259.89c9.31,0,29.16,8.5,29.16,8.5,5.67.13,16.6.13,16.6.13,6.07-4.31,13.16-8.77,13.16-8.77,9.92-.12,19.84,4.4,19.84,4.4,12.76,0,29.77,4.51,29.77,4.51,10.93.14,2,.14,10.93.14s6.08.14,14.58.14,14.17.14,19.84.14,5.67.15,14.17.15,12.76.14,21.26.14-10.9.14,18.43.14,26.22,8.55,36.85,8.55,16.54,9.16,18.31,0,8.62-7.12,12.87-7.12h85" transform="translate(-144 -259.6)"/></g></svg>