<svg id="Layer_1" data-name="Layer 1" xmlns="http://www.w3.org/2000/svg" xmlns:xlink="http://www.w3.org/1999/xlink" viewBox="0 0 834.55 357.19"><defs><style>.cls-1,.cls-3{fill:none;}.cls-2{clip-path:url(#clip-path);}.cls-3{stroke:#ed2124;stroke-width:0.28px;}</style><clipPath id="clip-path" transform="translate(-2.67 -123.76)"><rect class="cls-1" x="2.67" y="123.76" width="834.55" height="357.18"/></clipPath></defs><title>Line-1</title><g class="cls-2"><path class="cls-3" d="M2.75,123.87s4.73,3.67,5.67,7.45S16,138.88,16,138.88c7.56.43,12.29.43,12.29.43s.94.5,5.66.5,45.36,12.12,48.19,12.12,20.59-22.26,33.33,10.22,60.22,36.38,60.22,36.38l67.08,11.22L384.49,314.42l39.27,33.21s13.64,22.75,75.06,43.53,156.79,43.47,160.63,43.47,38.22,8.5,56.77,9.45-.08-13.18,37.71.5,40.2-4.28,61.42,13.67.32.38.32.38l9.7-.38c0,3.78-6,4.73,0,3.78s2.76-.94,7-.94v5.74l-4.72,4.6s-5.23-3.1,0,.36,5.22,4.41,5.22,4.41h3.71l.5,4.73" transform="translate(-2.67 -123.76)"/></g></svg>