<svg id="Layer_1" data-name="Layer 1" xmlns="http://www.w3.org/2000/svg" xmlns:xlink="http://www.w3.org/1999/xlink" viewBox="0 0 196.49 352.16"><defs><style>.cls-1,.cls-3{fill:none;}.cls-2{clip-path:url(#clip-path);}.cls-3{stroke:#ed2124;stroke-width:0.28px;}</style><clipPath id="clip-path" transform="translate(-225 -109.11)"><rect class="cls-1" x="225" y="109.11" width="196.49" height="352.16"/></clipPath></defs><title>Line-2-What?</title><g class="cls-2"><path class="cls-3" d="M225,109.43H228v-.15h.14s3.19-.92,11.61,7.59l8.43,8.5s-4,5.67.14,7.09,8.44,11.36,8.44,11.36,11.6-4.11,11.6.06v9.84s-27.19-68,5.41,8.5,76.53,85,89.29,130.39,32.6,35.44,32.6,35.44,1.42,4.25,11.34,8.5,7.08,0,11.34,5.67-5.45,4.25.11,7.09,1.14,4.25,1.14,4.25l-23.93,21.26v12.75s25.74,46.78,25.74,73.71" transform="translate(-225 -109.11)"/></g></svg>